<?xml version="1.0" encoding="utf-8" standalone="no"?>
<!DOCTYPE svg PUBLIC "-//W3C//DTD SVG 1.1//EN"
  "http://www.w3.org/Graphics/SVG/1.1/DTD/svg11.dtd">
<svg xmlns:xlink="http://www.w3.org/1999/xlink" width="576pt" height="432pt" viewBox="0 0 576 432" xmlns="http://www.w3.org/2000/svg" version="1.1">
 <metadata>
  <rdf:RDF xmlns:dc="http://purl.org/dc/elements/1.1/" xmlns:cc="http://creativecommons.org/ns#" xmlns:rdf="http://www.w3.org/1999/02/22-rdf-syntax-ns#">
   <cc:Work>
    <dc:type rdf:resource="http://purl.org/dc/dcmitype/StillImage"/>
    <dc:date>2023-06-18T14:28:38.087984</dc:date>
    <dc:format>image/svg+xml</dc:format>
    <dc:creator>
     <cc:Agent>
      <dc:title>Matplotlib v3.7.1, https://matplotlib.org/</dc:title>
     </cc:Agent>
    </dc:creator>
   </cc:Work>
  </rdf:RDF>
 </metadata>
 <defs>
  <style type="text/css">*{stroke-linejoin: round; stroke-linecap: butt}</style>
 </defs>
 <g id="figure_1">
  <g id="patch_1">
   <path d="M 0 432 
L 576 432 
L 576 0 
L 0 0 
L 0 432 
z
" style="fill: none"/>
  </g>
  <g id="axes_1">
   <g id="patch_2">
    <path d="M 253.62 276.372 
L 336.78 276.372 
Q 353.412 276.372 353.412 259.74 
L 353.412 176.58 
Q 353.412 159.948 336.78 159.948 
L 253.62 159.948 
Q 236.988 159.948 236.988 176.58 
L 236.988 259.74 
Q 236.988 276.372 253.62 276.372 
z
" clip-path="url(#p568bb05588)" style="fill: #ee7057; stroke: #0c161f; stroke-width: 3; stroke-linejoin: miter"/>
   </g>
   <g id="text_1">
    <path d="M 272.8375 190.226 
L 281.3125 190.226 
L 295.8125 211.9135 
L 310.375 190.226 
L 318.85 190.226 
L 300.1 218.2385 
L 320.1 248.551 
L 311.625 248.551 
L 295.225 223.751 
L 278.7 248.551 
L 270.1875 248.551 
L 291 217.4135 
L 272.8375 190.226 
z
" style="fill: #0c161f; stroke: #ffffff; stroke-width: 6"/>
    <path d="M 272.8375 190.226 
L 281.3125 190.226 
L 295.8125 211.9135 
L 310.375 190.226 
L 318.85 190.226 
L 300.1 218.2385 
L 320.1 248.551 
L 311.625 248.551 
L 295.225 223.751 
L 278.7 248.551 
L 270.1875 248.551 
L 291 217.4135 
L 272.8375 190.226 
z
" style="fill: #0c161f"/>
   </g>
  </g>
 </g>
 <defs>
  <clipPath id="p568bb05588">
   <rect x="128.88" y="51.84" width="332.64" height="332.64"/>
  </clipPath>
 </defs>
</svg>
